<?xml version="1.0" standalone="no"?>
<!DOCTYPE svg PUBLIC "-//W3C//DTD SVG 20010904//EN"
 "http://www.w3.org/TR/2001/REC-SVG-20010904/DTD/svg10.dtd">
<svg version="1.0" xmlns="http://www.w3.org/2000/svg"
 width="300.000000pt" height="300.000000pt" viewBox="0 0 300.000000 300.000000"
 preserveAspectRatio="xMidYMid meet">
<metadata>
Created by potrace 1.11, written by Peter Selinger 2001-2013
</metadata>
<g transform="translate(0.000000,300.000000) scale(0.100000,-0.100000)"
fill="#000000" stroke="none">
<path d="M1301 2079 c-95 -43 -179 -116 -283 -243 -10 -11 -22 -26 -28 -33
-69 -83 -221 -359 -261 -477 -29 -83 -31 -99 -26 -181 9 -162 63 -266 181
-348 138 -97 323 -149 544 -151 l62 -1 -1 -115 c0 -157 -9 -204 -42 -231 -16
-12 -27 -30 -27 -44 0 -20 -11 -27 -70 -50 -39 -15 -78 -34 -87 -43 -25 -25
-53 -93 -53 -129 l0 -33 414 0 c228 0 417 3 420 8 7 12 -31 110 -56 141 -21
27 -74 59 -108 65 -8 1 -41 8 -72 15 -55 12 -58 14 -58 42 0 16 -5 29 -12 29
-10 0 -13 28 -13 108 -1 59 -4 139 -8 177 l-7 70 81 19 c201 47 336 157 384
311 24 75 25 83 25 180 0 90 -3 108 -29 205 -53 199 -210 434 -399 601 -152
135 -325 174 -471 108z"/>
</g>
</svg>
